<svg xmlns="http://www.w3.org/2000/svg" width="48" height="45.726" viewBox="0 0 48 45.726">
  <g>
    <ellipse cx="24" cy="35.122" rx="24" ry="6.104" fill="#db5743"/>
    <rect x="1.875" y="22.115" width="44.25" height="19.392" fill="#ffbd66"/>
    <path d="M24,41.226c-13.254,0-24-2.733-24-6.1v4.5c0,3.372,10.746,6.1,24,6.1S48,43,48,39.622v-4.5C48,38.492,37.256,41.226,24,41.226Z" fill="#f87670"/>
    <path d="M24,23.975c-13.254,0-24-2.733-24-6.1v4.5c0,3.371,10.746,6.1,24,6.1s24-2.733,24-6.1v-4.5C48,21.241,37.256,23.975,24,23.975Z" fill="#f87670"/>
    <ellipse cx="24" cy="17.871" rx="24" ry="6.104" fill="#db5743"/>
    <path d="M32,17.594a1.183,1.183,0,0,1-1.63-.04h0a1.183,1.183,0,0,1-.04-1.63L44.439.388A1.181,1.181,0,0,1,46.15.347l.716.715.715.716a1.182,1.182,0,0,1-.041,1.711Z" fill="#c6c6c6"/>
    <circle cx="30.374" cy="17.554" r="2.534" fill="#e2e2e2"/>
    <path d="M17.594,15.924a1.181,1.181,0,0,1-.04,1.63h0a1.183,1.183,0,0,1-1.63.04L.388,3.489A1.182,1.182,0,0,1,.346,1.778l.715-.716L1.777.347a1.18,1.18,0,0,1,1.71.041Z" fill="#c6c6c6"/>
    <circle cx="17.555" cy="17.554" r="2.534" fill="#e2e2e2"/>
  </g>
</svg>
